<svg width="240" height="240" viewBox="0 0 240 240" fill="none" xmlns="http://www.w3.org/2000/svg">
<path d="M0 8.00001C0 3.58173 3.58172 0 8 0H232C236.418 0 240 3.58172 240 8V232C240 236.418 236.418 240 232 240H8.00001C3.58173 240 0 236.418 0 232V8.00001Z" fill="#052326"/>
<path d="M183.605 121.335C181.219 135.312 176.595 147.18 169.734 156.939C162.916 166.697 154.585 174.112 144.741 179.183C134.94 184.254 124.372 186.79 113.037 186.79C101.148 186.79 90.8991 184.084 82.2912 178.672C73.7259 173.26 67.5256 165.44 63.6903 155.213C59.8551 144.943 59.1307 132.564 61.517 118.075C63.8182 104.055 68.3991 92.1662 75.2599 82.4077C82.1207 72.6065 90.4943 65.1491 100.381 60.0355C110.267 54.8793 120.899 52.3011 132.277 52.3011C144.081 52.3011 154.266 55.0284 162.831 60.483C171.439 65.9375 177.639 73.821 181.432 84.1335C185.267 94.4034 185.991 106.804 183.605 121.335ZM156.055 118.075C157.547 109.084 157.483 101.541 155.864 95.4474C154.287 89.3111 151.389 84.6662 147.17 81.5128C142.952 78.3594 137.625 76.7827 131.19 76.7827C124.202 76.7827 117.788 78.5298 111.95 82.0241C106.155 85.5185 101.254 90.5895 97.2486 97.2372C93.2855 103.842 90.5369 111.875 89.0028 121.335C87.4688 130.369 87.5114 137.912 89.1307 143.963C90.7926 150.014 93.7543 154.595 98.0156 157.706C102.32 160.774 107.668 162.308 114.06 162.308C121.006 162.308 127.355 160.604 133.108 157.195C138.903 153.743 143.783 148.736 147.746 142.173C151.709 135.568 154.479 127.536 156.055 118.075Z" fill="#D3FB52"/>
</svg>
