<svg width="163" height="40" viewBox="0 0 163 40" fill="none" xmlns="http://www.w3.org/2000/svg">
<path d="M0 8C0 3.58172 3.58172 0 8 0H32C36.4183 0 40 3.58172 40 8V32C40 36.4183 36.4183 40 32 40H8C3.58172 40 0 36.4183 0 32V8Z" fill="#052326"/>
<path d="M30.3509 20.3892C29.9531 22.7187 29.1825 24.6967 28.0391 26.3232C26.9027 27.9496 25.5142 29.1854 23.8736 30.0305C22.2401 30.8757 20.4787 31.2983 18.5895 31.2983C16.608 31.2983 14.8999 30.8473 13.4652 29.9453C12.0376 29.0433 11.0043 27.7401 10.3651 26.0355C9.72585 24.3239 9.60511 22.2607 10.0028 19.8459C10.3864 17.5092 11.1499 15.5277 12.2933 13.9013C13.4368 12.2678 14.8324 11.0249 16.4801 10.1726C18.1278 9.31321 19.8999 8.88352 21.7962 8.88352C23.7635 8.88352 25.4609 9.33807 26.8885 10.2472C28.3232 11.1562 29.3565 12.4702 29.9886 14.1889C30.6278 15.9006 30.7486 17.9673 30.3509 20.3892ZM25.7592 19.8459C26.0078 18.3473 25.9972 17.0902 25.7273 16.0746C25.4645 15.0518 24.9815 14.2777 24.2784 13.7521C23.5753 13.2266 22.6875 12.9638 21.6151 12.9638C20.4503 12.9638 19.3814 13.255 18.4084 13.8374C17.4425 14.4197 16.6257 15.2649 15.9581 16.3729C15.2976 17.4737 14.8395 18.8125 14.5838 20.3892C14.3281 21.8949 14.3352 23.152 14.6051 24.1605C14.8821 25.169 15.3757 25.9325 16.0859 26.451C16.8033 26.9624 17.6946 27.218 18.7599 27.218C19.9176 27.218 20.9759 26.9339 21.9347 26.3658C22.9006 25.7905 23.7138 24.956 24.3743 23.8622C25.0348 22.7614 25.4964 21.4226 25.7592 19.8459Z" fill="#D3FB52"/>
<path d="M67.0923 19.9545C66.8272 21.5218 66.3063 22.8452 65.5298 23.9247C64.758 24.9995 63.8182 25.8139 62.7102 26.3679C61.607 26.9219 60.4209 27.1989 59.152 27.1989C57.812 27.1989 56.652 26.9006 55.6719 26.304C54.6918 25.7074 53.9792 24.8385 53.5341 23.6974C53.0938 22.5563 53.0085 21.1714 53.2784 19.5426C53.5341 17.9754 54.0478 16.6496 54.8196 15.5653C55.5961 14.4811 56.5407 13.6596 57.6534 13.1009C58.7708 12.5374 59.9688 12.2557 61.2472 12.2557C62.5777 12.2557 63.7306 12.5563 64.706 13.1577C65.6861 13.759 66.3963 14.6326 66.8366 15.7784C67.277 16.9242 67.3622 18.3163 67.0923 19.9545ZM63.5767 19.5426C63.7235 18.6288 63.7235 17.8594 63.5767 17.2344C63.4347 16.6094 63.1553 16.1383 62.7386 15.821C62.322 15.4991 61.7798 15.3381 61.1122 15.3381C60.3736 15.3381 59.706 15.5204 59.1094 15.8849C58.5175 16.2448 58.0227 16.7704 57.625 17.4616C57.2273 18.1482 56.9503 18.9792 56.794 19.9545C56.633 20.8778 56.6283 21.6473 56.7798 22.2628C56.9361 22.8783 57.2273 23.3423 57.6534 23.6548C58.0795 23.9626 58.6217 24.1165 59.2798 24.1165C60.0137 24.1165 60.6742 23.9389 61.2614 23.5838C61.8485 23.2287 62.3385 22.7102 62.7315 22.0284C63.1293 21.3466 63.411 20.518 63.5767 19.5426ZM72.5043 20.7784L71.4673 27H67.9943L69.8125 16.0909H73.1151L72.7884 18.0938H72.9091C73.25 17.4261 73.7448 16.9029 74.3935 16.5241C75.0421 16.1406 75.7713 15.9489 76.581 15.9489C77.3433 15.9489 77.9801 16.1193 78.4915 16.4602C79.0028 16.8011 79.3651 17.2794 79.5781 17.8949C79.7912 18.5057 79.8267 19.223 79.6847 20.0469L78.5199 27H75.0469L76.0909 20.7287C76.1951 20.1274 76.1217 19.6562 75.8707 19.3153C75.6245 18.9697 75.2221 18.7969 74.6634 18.7969C74.2988 18.7969 73.965 18.8774 73.6619 19.0384C73.3636 19.1946 73.1127 19.4195 72.9091 19.7131C72.7102 20.0066 72.5753 20.3617 72.5043 20.7784ZM95.3789 17.7244H91.8704C91.8893 17.3551 91.8538 17.026 91.7638 16.7372C91.6739 16.4437 91.5318 16.1927 91.3377 15.9844C91.1436 15.7713 90.9021 15.6103 90.6133 15.5014C90.3245 15.3925 89.9883 15.3381 89.6048 15.3381C88.8709 15.3381 88.2056 15.5204 87.609 15.8849C87.0124 16.2495 86.5129 16.7751 86.1104 17.4616C85.708 18.1482 85.4263 18.9721 85.2653 19.9332C85.1185 20.8613 85.1209 21.6354 85.2724 22.2557C85.4286 22.8759 85.7174 23.3423 86.1388 23.6548C86.5603 23.9626 87.0953 24.1165 87.744 24.1165C88.1654 24.1165 88.556 24.0668 88.9158 23.9673C89.2804 23.8632 89.6095 23.714 89.9031 23.5199C90.1966 23.3258 90.4499 23.0914 90.663 22.8168C90.8808 22.5374 91.0489 22.2273 91.1673 21.8864H94.7042C94.529 22.5256 94.2402 23.1624 93.8377 23.7969C93.44 24.4266 92.9381 24.9972 92.332 25.5085C91.726 26.0199 91.0228 26.4295 90.2227 26.7372C89.4225 27.045 88.5323 27.1989 87.5522 27.1989C86.2122 27.1989 85.0569 26.8982 84.0863 26.2969C83.1204 25.6955 82.422 24.8243 81.9911 23.6832C81.565 22.5374 81.4845 21.1501 81.7496 19.5213C82.0101 17.9446 82.5238 16.6165 83.2908 15.5369C84.0626 14.4574 85.0001 13.6406 86.1033 13.0866C87.2113 12.5327 88.3926 12.2557 89.6474 12.2557C90.5565 12.2557 91.3732 12.3788 92.0977 12.625C92.8268 12.8665 93.4447 13.2216 93.9513 13.6903C94.458 14.1544 94.8344 14.7249 95.0806 15.402C95.3316 16.0791 95.431 16.8532 95.3789 17.7244ZM98.9105 27.1847C98.2192 27.1847 97.6226 27.0687 97.1207 26.8366C96.6236 26.5999 96.259 26.2424 96.027 25.7642C95.7997 25.286 95.7453 24.6894 95.8636 23.9744C95.9678 23.3684 96.1596 22.8594 96.4389 22.4474C96.723 22.0308 97.071 21.6922 97.483 21.4318C97.8996 21.1714 98.3636 20.9725 98.875 20.8352C99.3864 20.6979 99.9214 20.6056 100.48 20.5582C101.105 20.5014 101.612 20.4399 102 20.3736C102.393 20.3073 102.687 20.215 102.881 20.0966C103.075 19.9735 103.193 19.803 103.236 19.5852V19.5497C103.293 19.1851 103.214 18.9034 103.001 18.7045C102.788 18.5057 102.469 18.4062 102.043 18.4062C101.588 18.4062 101.2 18.5057 100.878 18.7045C100.556 18.9034 100.331 19.178 100.203 19.5284L97.0213 19.4148C97.2202 18.7519 97.5611 18.16 98.044 17.6392C98.527 17.1136 99.1402 16.7017 99.8835 16.4034C100.632 16.1004 101.496 15.9489 102.476 15.9489C103.167 15.9489 103.792 16.0317 104.351 16.1974C104.91 16.3584 105.381 16.5952 105.764 16.9077C106.152 17.2154 106.429 17.5942 106.595 18.044C106.761 18.4938 106.796 19.0076 106.702 19.5852L105.459 27H102.192L102.447 25.4801H102.362C102.107 25.8494 101.806 26.1619 101.46 26.4176C101.119 26.6733 100.736 26.8651 100.31 26.9929C99.8835 27.1207 99.4171 27.1847 98.9105 27.1847ZM100.374 24.9119C100.738 24.9119 101.084 24.8362 101.411 24.6847C101.737 24.5331 102.012 24.3248 102.234 24.0597C102.462 23.7898 102.606 23.4773 102.668 23.1222L102.831 22.0852C102.732 22.1373 102.606 22.1847 102.455 22.2273C102.303 22.2699 102.142 22.3101 101.972 22.348C101.801 22.3812 101.626 22.4143 101.446 22.4474C101.271 22.4759 101.103 22.5019 100.942 22.5256C100.601 22.5777 100.305 22.6581 100.054 22.767C99.803 22.8759 99.6018 23.018 99.4503 23.1932C99.3035 23.3636 99.2135 23.5672 99.1804 23.804C99.1236 24.1591 99.2064 24.4337 99.429 24.6278C99.6515 24.8172 99.9664 24.9119 100.374 24.9119ZM107.604 27L109.422 16.0909H112.724L112.398 18.0938H112.518C112.85 17.4309 113.319 16.9077 113.925 16.5241C114.531 16.1406 115.208 15.9489 115.956 15.9489C116.709 15.9489 117.322 16.143 117.795 16.5312C118.274 16.9195 118.532 17.4403 118.57 18.0938H118.683C118.996 17.4451 119.479 16.9266 120.132 16.5384C120.79 16.1454 121.524 15.9489 122.334 15.9489C123.357 15.9489 124.135 16.2803 124.67 16.9432C125.21 17.6013 125.383 18.5057 125.189 19.6562L123.967 27H120.501L121.609 20.4517C121.685 19.9072 121.605 19.4929 121.368 19.2088C121.136 18.92 120.797 18.7756 120.352 18.7756C119.874 18.7756 119.474 18.9295 119.152 19.2372C118.835 19.545 118.638 19.9616 118.562 20.4872L117.462 27H114.116L115.232 20.4162C115.303 19.9096 115.224 19.5095 114.997 19.2159C114.775 18.9223 114.436 18.7756 113.982 18.7756C113.683 18.7756 113.406 18.849 113.151 18.9957C112.895 19.1378 112.679 19.3414 112.504 19.6065C112.334 19.8717 112.223 20.1842 112.17 20.544L111.077 27H107.604ZM125.438 31.0909L127.952 16.0909H131.389L131.084 17.9588H131.19C131.38 17.6274 131.631 17.3078 131.943 17C132.26 16.6922 132.642 16.4413 133.087 16.2472C133.532 16.0483 134.041 15.9489 134.614 15.9489C135.371 15.9489 136.046 16.1477 136.638 16.5455C137.23 16.9432 137.661 17.5563 137.93 18.3849C138.2 19.2135 138.229 20.2694 138.016 21.5526C137.812 22.7884 137.443 23.8229 136.908 24.6562C136.377 25.4896 135.748 26.1146 135.018 26.5312C134.289 26.9479 133.525 27.1562 132.724 27.1562C132.175 27.1562 131.711 27.0663 131.332 26.8864C130.958 26.7064 130.662 26.4697 130.445 26.1761C130.227 25.8826 130.075 25.5677 129.99 25.2315H129.891L128.925 31.0909H125.438ZM130.445 21.5455C130.35 22.1326 130.345 22.6439 130.43 23.0795C130.516 23.5152 130.688 23.8537 130.949 24.0952C131.214 24.3319 131.557 24.4503 131.979 24.4503C132.405 24.4503 132.784 24.3319 133.115 24.0952C133.451 23.8537 133.733 23.5152 133.96 23.0795C134.188 22.6439 134.353 22.1326 134.457 21.5455C134.547 20.9583 134.55 20.4493 134.464 20.0185C134.384 19.5876 134.216 19.2538 133.96 19.017C133.705 18.7803 133.361 18.6619 132.93 18.6619C132.509 18.6619 132.125 18.7779 131.78 19.0099C131.439 19.242 131.155 19.5734 130.928 20.0043C130.7 20.4351 130.539 20.9489 130.445 21.5455ZM146.75 22.2912L147.787 16.0909H151.252L149.434 27H146.125L146.458 24.9688H146.345C146.009 25.6364 145.514 26.1667 144.86 26.5597C144.207 26.9479 143.471 27.142 142.652 27.142C141.908 27.142 141.283 26.9716 140.777 26.6307C140.27 26.2898 139.91 25.8139 139.697 25.2031C139.489 24.5876 139.451 23.8679 139.583 23.044L140.748 16.0909H144.221L143.177 22.3622C143.087 22.9541 143.165 23.4205 143.412 23.7614C143.663 24.1023 144.056 24.2727 144.591 24.2727C144.936 24.2727 145.261 24.197 145.564 24.0455C145.867 23.8892 146.122 23.6643 146.331 23.3707C146.544 23.0724 146.683 22.7126 146.75 22.2912ZM162.405 19.4219L159.273 19.5071C159.277 19.2751 159.225 19.0715 159.116 18.8963C159.008 18.7164 158.854 18.5767 158.655 18.4773C158.456 18.3778 158.219 18.3281 157.945 18.3281C157.5 18.3281 157.099 18.4276 156.744 18.6264C156.394 18.8253 156.197 19.0833 156.155 19.4006C156.122 19.571 156.169 19.7202 156.297 19.848C156.425 19.9711 156.709 20.08 157.149 20.1747L159.195 20.5724C160.246 20.7808 161.008 21.143 161.482 21.6591C161.96 22.1705 162.13 22.8475 161.993 23.6903C161.87 24.41 161.553 25.0327 161.041 25.5582C160.535 26.0838 159.888 26.491 159.102 26.7798C158.321 27.0639 157.457 27.206 156.51 27.206C154.91 27.206 153.702 26.884 152.888 26.2401C152.078 25.5914 151.699 24.732 151.751 23.6619L155.132 23.5767C155.146 23.9792 155.281 24.2822 155.537 24.4858C155.797 24.6847 156.15 24.7888 156.595 24.7983C157.083 24.8078 157.504 24.706 157.859 24.4929C158.214 24.2798 158.413 24.017 158.456 23.7045C158.484 23.5009 158.416 23.3423 158.25 23.2287C158.089 23.1151 157.788 23.0133 157.348 22.9233L155.501 22.5611C154.441 22.3575 153.674 21.974 153.2 21.4105C152.732 20.8423 152.571 20.1179 152.717 19.2372C152.84 18.5365 153.129 17.9422 153.584 17.4545C154.043 16.9621 154.642 16.5881 155.381 16.3324C156.124 16.0767 156.972 15.9489 157.923 15.9489C159.448 15.9489 160.598 16.259 161.375 16.8793C162.156 17.4948 162.5 18.3423 162.405 19.4219Z" fill="#052326"/>
</svg>
